<svg width="143" height="238" viewBox="0 0 143 238" fill="none" xmlns="http://www.w3.org/2000/svg">
<path d="M0 0V38.4628H3.63285V38.4345V34.83V3.63285H34.83V34.83V38.4345V38.4628H38.4629V36.9238V0H0Z" fill="#797979"/>
<path d="M12.3079 7.69141H7.69092V12.3084H12.3079V7.69141Z" fill="#797979"/>
<path d="M21.5419 7.69141H16.9249V12.3084H21.5419V7.69141Z" fill="#797979"/>
<path d="M30.7719 7.69141H26.1549V12.3084H30.7719V7.69141Z" fill="#797979"/>
<path d="M12.3079 16.9258H7.69092V21.5428H12.3079V16.9258Z" fill="#797979"/>
<path d="M21.5419 16.9258H16.9249V21.5428H21.5419V16.9258Z" fill="#797979"/>
<path d="M30.7719 16.9258H26.1549V21.5428H30.7719V16.9258Z" fill="#797979"/>
<path d="M12.3079 26.1553H7.69092V30.7723H12.3079V26.1553Z" fill="#797979"/>
<path d="M30.7719 26.1553H26.1549V30.7723H30.7719V26.1553Z" fill="#797979"/>
<path d="M21.5419 26.1553H16.9249V38.4349H21.5419V26.1553Z" fill="#797979"/>
<path d="M9.185 49.069V50.07H1.815V49.069H9.185ZM9.185 51.434V52.435H6.05V56.89H4.95V52.435H1.815V51.434H9.185ZM13.046 53.843H15.279V51.72C15.279 51.28 15.312 50.598 15.334 50.147H15.29C15.092 50.565 14.872 50.983 14.641 51.401L13.046 53.843ZM15.279 57V54.822H11.77V53.975L14.993 48.893H16.467V53.843H17.49V54.822H16.467V57H15.279ZM21.3214 57.143C20.0454 57.143 19.2424 56.626 18.6704 56.065L19.2754 55.24C19.7374 55.702 20.3204 56.109 21.1674 56.109C22.0804 56.109 22.7734 55.46 22.7734 54.382C22.7734 53.304 22.1574 52.688 21.2334 52.688C20.7164 52.688 20.4084 52.842 19.9354 53.15L19.3194 52.743L19.5614 48.893H23.6644V49.971H20.6614L20.4744 52.05C20.8264 51.874 21.1454 51.764 21.5854 51.764C22.9384 51.764 24.0494 52.567 24.0494 54.338C24.0494 56.131 22.7404 57.143 21.3214 57.143ZM28.3319 57.143C26.7479 57.143 25.7139 55.735 25.7139 52.919C25.7139 50.114 26.7479 48.75 28.3319 48.75C29.9159 48.75 30.9499 50.125 30.9499 52.919C30.9499 55.735 29.9159 57.143 28.3319 57.143ZM28.3319 56.142C29.1569 56.142 29.7399 55.262 29.7399 52.919C29.7399 50.598 29.1569 49.751 28.3319 49.751C27.5069 49.751 26.9239 50.598 26.9239 52.919C26.9239 55.262 27.5069 56.142 28.3319 56.142ZM32.5373 54.36V53.425H35.4413V54.36H32.5373ZM39.637 57.143C38.053 57.143 37.019 55.735 37.019 52.919C37.019 50.114 38.053 48.75 39.637 48.75C41.221 48.75 42.255 50.125 42.255 52.919C42.255 55.735 41.221 57.143 39.637 57.143ZM39.637 56.142C40.462 56.142 41.045 55.262 41.045 52.919C41.045 50.598 40.462 49.751 39.637 49.751C38.812 49.751 38.229 50.598 38.229 52.919C38.229 55.262 38.812 56.142 39.637 56.142ZM46.4604 57.143C44.8764 57.143 43.8424 55.735 43.8424 52.919C43.8424 50.114 44.8764 48.75 46.4604 48.75C48.0444 48.75 49.0784 50.125 49.0784 52.919C49.0784 55.735 48.0444 57.143 46.4604 57.143ZM46.4604 56.142C47.2854 56.142 47.8684 55.262 47.8684 52.919C47.8684 50.598 47.2854 49.751 46.4604 49.751C45.6354 49.751 45.0524 50.598 45.0524 52.919C45.0524 55.262 45.6354 56.142 46.4604 56.142ZM53.2838 57.143C51.6998 57.143 50.6658 55.735 50.6658 52.919C50.6658 50.114 51.6998 48.75 53.2838 48.75C54.8678 48.75 55.9018 50.125 55.9018 52.919C55.9018 55.735 54.8678 57.143 53.2838 57.143ZM53.2838 56.142C54.1088 56.142 54.6918 55.262 54.6918 52.919C54.6918 50.598 54.1088 49.751 53.2838 49.751C52.4588 49.751 51.8758 50.598 51.8758 52.919C51.8758 55.262 52.4588 56.142 53.2838 56.142ZM57.4563 57V56.263C59.8433 54.151 61.0753 52.578 61.0753 51.247C61.0753 50.367 60.6133 49.762 59.7003 49.762C59.0623 49.762 58.5343 50.169 58.1053 50.664L57.3903 49.96C58.0833 49.201 58.7983 48.75 59.8543 48.75C61.3393 48.75 62.2963 49.718 62.2963 51.181C62.2963 52.743 61.0533 54.36 59.3373 55.999C59.7553 55.955 60.2613 55.922 60.6573 55.922H62.6813V57H57.4563ZM3.454 66.301H5.192C5.093 65.927 4.84 65.421 4.576 65.025C4.114 65.058 3.652 65.08 3.19 65.102C3.454 65.443 3.696 65.85 3.784 66.158L3.454 66.301ZM1.859 67.104V68.248H0.891V66.301H2.849C2.706 65.96 2.453 65.553 2.2 65.234L2.464 65.124C2.112 65.146 1.76 65.146 1.419 65.157C1.397 64.948 1.298 64.596 1.21 64.398C3.894 64.332 7.128 64.112 8.899 63.76L9.57 64.464C8.459 64.684 7.051 64.849 5.566 64.959C5.808 65.333 6.006 65.762 6.083 66.081L5.489 66.301H7.216C7.524 65.85 7.931 65.19 8.14 64.717L9.13 65.08C8.844 65.487 8.525 65.938 8.239 66.301H10.12V68.347H9.108V67.104H5.478C5.907 67.313 6.336 67.566 6.589 67.775L6.061 68.358C5.72 68.072 5.038 67.665 4.466 67.412L4.763 67.104H1.859ZM7.403 68.006L8.096 67.511C8.734 67.995 9.482 68.688 9.823 69.194L9.086 69.744C8.767 69.249 8.03 68.501 7.403 68.006ZM1.881 69.865L1.177 69.282C1.815 68.93 2.277 68.303 2.53 67.676L3.3 68.006C3.036 68.71 2.596 69.414 1.881 69.865ZM7.04 70.943H3.894C4.323 71.339 4.862 71.669 5.511 71.944C6.116 71.669 6.633 71.339 7.04 70.943ZM7.898 70.184L8.536 70.602C8.063 71.317 7.403 71.878 6.611 72.34C7.744 72.67 9.053 72.879 10.45 72.967C10.23 73.187 9.999 73.616 9.856 73.88C8.239 73.726 6.743 73.407 5.489 72.879C4.202 73.396 2.695 73.704 1.155 73.891C1.067 73.66 0.814 73.242 0.627 73.044C1.98 72.934 3.3 72.714 4.444 72.351C3.96 72.076 3.542 71.746 3.168 71.383C2.629 71.713 2.057 72.01 1.507 72.241C1.364 72.065 1.012 71.724 0.814 71.57C2.09 71.108 3.377 70.393 4.158 69.535C3.696 69.425 3.564 69.161 3.564 68.6V67.676H4.51V68.589C4.51 68.831 4.587 68.864 5.005 68.864H6.413C6.732 68.864 6.798 68.787 6.842 68.237C7.018 68.347 7.381 68.457 7.623 68.512C7.535 69.381 7.282 69.59 6.523 69.59H5.093L5.225 69.634C5.06 69.832 4.884 70.03 4.686 70.217H7.722L7.898 70.184ZM17.193 69.095H15.18C15.147 69.304 15.125 69.513 15.081 69.722C15.631 70.261 16.896 71.691 17.215 72.054L16.511 72.934C16.148 72.384 15.411 71.438 14.828 70.767C14.465 71.9 13.816 73 12.65 73.847C12.507 73.627 12.133 73.22 11.924 73.066C13.475 71.966 13.981 70.47 14.146 69.095H12.056V68.127H14.212V67.797V66.158H13.541C13.31 66.763 13.024 67.313 12.727 67.753C12.54 67.577 12.133 67.302 11.891 67.159C12.518 66.356 12.947 65.069 13.2 63.782L14.179 63.969C14.091 64.387 13.992 64.805 13.882 65.201H16.885V66.158H15.246V67.808C15.246 67.907 15.246 68.017 15.246 68.127H17.193V69.095ZM18.502 71.768H20.504V65.685H18.502V71.768ZM17.512 64.717H21.538V73.429H20.504V72.725H18.502V73.55H17.512V64.717ZM31.273 65.63V64.904H27.225V65.63H31.273ZM31.273 67.049V66.312H27.225V67.049H31.273ZM31.273 68.479V67.731H27.225V68.479H31.273ZM32.263 64.178V69.205H26.257V64.178H32.263ZM26.048 71.196L27.115 71.592C26.422 72.406 25.377 73.231 24.464 73.748C24.255 73.55 23.881 73.231 23.639 73.077C24.541 72.615 25.542 71.845 26.048 71.196ZM33.495 70.811H29.15V73.858H28.072V70.811H25.289V71.075H24.266V64.761H25.289V69.909H33.495V70.811ZM30.107 71.702L30.976 71.152C31.812 71.724 32.967 72.571 33.561 73.132L32.637 73.759C32.098 73.209 30.976 72.318 30.107 71.702ZM39.204 72.505H43.362V70.041H39.204V72.505ZM41.58 65.762H38.555C38.346 65.993 38.126 66.235 37.884 66.455C38.544 66.939 39.314 67.566 39.798 68.083C40.524 67.401 41.14 66.62 41.58 65.762ZM44.418 69.106V73.88H43.362V73.429H39.204V73.858H38.181V70.558C37.356 71.031 36.487 71.427 35.607 71.713C35.486 71.438 35.222 71.02 35.024 70.8C36.399 70.393 37.785 69.7 38.973 68.787C38.522 68.27 37.774 67.621 37.125 67.126C36.707 67.445 36.256 67.764 35.772 68.05C35.618 67.797 35.288 67.423 35.046 67.258C36.85 66.279 38.082 64.915 38.72 63.727L39.875 63.947C39.699 64.255 39.501 64.552 39.292 64.849H42.097L42.284 64.794L42.977 65.168C42.372 66.73 41.382 68.05 40.194 69.106H44.418ZM54.373 72.351V69.854H49.005V72.351H54.373ZM56.628 66.697H52.261V68.875H55.484V73.836H54.373V73.33H49.005V73.88H47.949V68.875H51.15V66.697H46.805V65.696H51.15V63.782H52.261V65.696H56.628V66.697ZM65.395 68.358H63.525C63.294 68.699 63.063 69.051 62.832 69.37C63.701 69.348 64.636 69.315 65.593 69.282C65.329 69.084 65.065 68.886 64.812 68.721L65.395 68.358ZM66.495 65.135H60.379V66.092H66.495V65.135ZM64.515 72.747H68.123V73.583H60.016V72.747H63.514V71.746H60.808V70.932H63.514V70.129L60.61 70.25L60.555 69.425C60.907 69.425 61.314 69.414 61.754 69.403C61.963 69.084 62.194 68.71 62.381 68.358H60.368C60.302 70.14 60.049 72.34 59.092 73.869C58.894 73.704 58.443 73.44 58.179 73.341C59.257 71.614 59.356 69.139 59.356 67.39V64.299H67.529V66.928H60.379V67.39V67.533H67.826V68.358H65.78C66.528 68.853 67.386 69.524 67.826 70.03L67.001 70.58C66.858 70.404 66.671 70.217 66.451 70.008L64.515 70.096V70.932H67.309V71.746H64.515V72.747ZM79.75 66.213H75.295V67.555H78.782V71.339C78.782 71.878 78.661 72.175 78.265 72.34C77.847 72.505 77.231 72.516 76.34 72.516C76.285 72.208 76.142 71.779 75.988 71.504C76.648 71.537 77.297 71.537 77.484 71.526C77.671 71.515 77.726 71.471 77.726 71.317V68.556H75.295V73.891H74.239V68.556H71.984V72.538H70.961V67.555H74.239V66.213H69.872V65.223H74.228V63.716H75.317V65.223H79.75V66.213ZM86.856 69.359H89.716V66.697H86.856V69.359ZM82.94 69.359H85.789V66.697H82.94V69.359ZM86.856 65.696H90.783V70.954H89.716V70.36H86.856V73.858H85.789V70.36H82.94V71.009H81.917V65.696H85.789V63.782H86.856V65.696ZM95.821 67.038V67.863C96.184 68.237 97.229 69.414 97.482 69.711L96.844 70.569C96.635 70.195 96.206 69.601 95.821 69.095V73.858H94.831V68.952C94.391 70.118 93.841 71.229 93.258 71.933C93.148 71.625 92.895 71.207 92.73 70.965C93.522 70.041 94.292 68.468 94.699 67.038H93.005V66.07H94.831V63.771H95.821V66.07H97.383V67.038H95.821ZM103.015 66.048V67.027H101.86V72.538C101.86 73.187 101.717 73.495 101.31 73.671C100.914 73.836 100.254 73.869 99.286 73.858C99.242 73.572 99.077 73.088 98.923 72.78C99.638 72.813 100.32 72.802 100.54 72.802C100.749 72.791 100.826 72.736 100.826 72.538V67.027H97.691V66.048H100.826V63.782H101.86V66.048H103.015ZM100.1 70.569L99.176 71.042C98.989 70.338 98.428 69.249 97.856 68.413L98.703 68.017C99.286 68.82 99.891 69.876 100.1 70.569ZM114.411 72.318V73.297H105.985V73.88H104.973V64.409H114.147V65.388H105.985V72.318H114.411ZM113.08 70.8L112.277 71.57C111.804 70.954 111.056 70.206 110.187 69.469C109.318 70.437 108.35 71.284 107.349 71.944C107.173 71.735 106.777 71.328 106.535 71.141C107.569 70.547 108.548 69.744 109.406 68.82C108.603 68.182 107.767 67.577 106.975 67.071L107.679 66.411C108.449 66.895 109.274 67.456 110.066 68.05C110.66 67.313 111.188 66.499 111.606 65.663L112.607 66.004C112.112 66.95 111.518 67.852 110.858 68.677C111.76 69.414 112.563 70.151 113.08 70.8ZM4.554 88.505H8.712V86.041H4.554V88.505ZM6.93 81.762H3.905C3.696 81.993 3.476 82.235 3.234 82.455C3.894 82.939 4.664 83.566 5.148 84.083C5.874 83.401 6.49 82.62 6.93 81.762ZM9.768 85.106V89.88H8.712V89.429H4.554V89.858H3.531V86.558C2.706 87.031 1.837 87.427 0.957 87.713C0.836 87.438 0.572 87.02 0.374 86.8C1.749 86.393 3.135 85.7 4.323 84.787C3.872 84.27 3.124 83.621 2.475 83.126C2.057 83.445 1.606 83.764 1.122 84.05C0.968 83.797 0.638 83.423 0.396 83.258C2.2 82.279 3.432 80.915 4.07 79.727L5.225 79.947C5.049 80.255 4.851 80.552 4.642 80.849H7.447L7.634 80.794L8.327 81.168C7.722 82.73 6.732 84.05 5.544 85.106H9.768ZM12.43 89.297L11.88 88.989C12.265 88.428 12.408 87.46 12.452 86.503L13.035 86.613C12.98 87.625 12.87 88.67 12.43 89.297ZM13.233 86.734L13.728 86.679C13.838 87.317 13.893 88.131 13.882 88.67L13.365 88.747C13.387 88.197 13.332 87.383 13.233 86.734ZM13.376 84.292V85.139H14.278V84.292H13.376ZM14.278 81.036H13.376V81.85H14.278V81.036ZM14.278 83.489V82.653H13.376V83.489H14.278ZM15.125 85.139H16.742C16.742 85.139 16.731 85.403 16.72 85.524C16.588 88.186 16.467 89.176 16.192 89.517C16.016 89.726 15.829 89.814 15.576 89.836C15.345 89.869 14.971 89.869 14.575 89.847C14.564 89.605 14.476 89.253 14.355 89.033C14.696 89.077 15.004 89.077 15.147 89.077C15.279 89.077 15.367 89.055 15.455 88.956C15.565 88.824 15.642 88.483 15.719 87.746L15.356 87.889C15.268 87.504 15.037 86.91 14.784 86.47L15.224 86.316C15.433 86.657 15.62 87.086 15.741 87.427C15.774 87.031 15.807 86.547 15.829 85.953H12.507V80.189H16.599V81.036H15.125V81.85H16.401V82.653H15.125V83.489H16.401V84.292H15.125V85.139ZM14.916 88.296L14.41 88.406C14.377 87.933 14.212 87.196 14.025 86.635L14.498 86.536C14.696 87.086 14.872 87.823 14.916 88.296ZM20.801 81.124H18.359V83.874H20.801V81.124ZM21.725 84.82H20.053C20.372 86.712 21.01 88.296 22.209 89.077C21.989 89.253 21.681 89.638 21.549 89.902C20.152 88.912 19.503 87.108 19.14 84.82H18.359C18.326 86.47 18.117 88.538 17.171 89.891C16.995 89.726 16.577 89.462 16.346 89.363C17.325 87.966 17.402 85.931 17.402 84.347V80.189H21.725V84.82ZM26.048 89.143C24.772 89.143 23.969 88.626 23.397 88.065L24.002 87.24C24.464 87.702 25.047 88.109 25.894 88.109C26.807 88.109 27.5 87.46 27.5 86.382C27.5 85.304 26.884 84.688 25.96 84.688C25.443 84.688 25.135 84.842 24.662 85.15L24.046 84.743L24.288 80.893H28.391V81.971H25.388L25.201 84.05C25.553 83.874 25.872 83.764 26.312 83.764C27.665 83.764 28.776 84.567 28.776 86.338C28.776 88.131 27.467 89.143 26.048 89.143ZM30.4404 86.36V85.425H33.3444V86.36H30.4404ZM35.9011 85.843H38.1341V83.72C38.1341 83.28 38.1671 82.598 38.1891 82.147H38.1451C37.9471 82.565 37.7271 82.983 37.4961 83.401L35.9011 85.843ZM38.1341 89V86.822H34.6251V85.975L37.8481 80.893H39.3221V85.843H40.3451V86.822H39.3221V89H38.1341ZM41.7455 86.36V85.425H44.6495V86.36H41.7455ZM46.6562 89V87.955H48.4272V82.323H46.9752V81.52C47.7342 81.377 48.2732 81.19 48.7352 80.893H49.6922V87.955H51.2762V89H46.6562ZM54.0296 85.843H56.2626V83.72C56.2626 83.28 56.2956 82.598 56.3176 82.147H56.2736C56.0756 82.565 55.8556 82.983 55.6246 83.401L54.0296 85.843ZM56.2626 89V86.822H52.7536V85.975L55.9766 80.893H57.4506V85.843H58.4736V86.822H57.4506V89H56.2626ZM66.6017 81.707V82.807H65.7657L66.6017 83.071C66.3597 83.566 66.0627 84.061 65.7437 84.523V89.858H64.7317V85.81C64.3357 86.25 63.9287 86.646 63.5327 86.976C63.3457 86.778 62.9277 86.415 62.6857 86.25C63.8407 85.425 64.9407 84.116 65.5897 82.752H65.6007V81.707H63.0707V80.728H65.6007V79.771H66.6017V80.728H69.1867V79.771H70.1987V80.728H72.6847V81.707H70.1987V82.851H69.1867V81.707H66.6017ZM69.6047 88.747H71.3537C71.8377 88.747 71.9147 88.483 71.9807 87.097C72.2117 87.273 72.6407 87.449 72.9157 87.515C72.7947 89.198 72.4977 89.715 71.4197 89.715H69.5057C68.3067 89.715 67.9767 89.374 67.9767 88.197V82.895H68.9887V85.315C70.0117 84.842 71.0457 84.259 71.7167 83.764L72.4867 84.534C71.5187 85.161 70.1987 85.755 68.9887 86.25V88.197C68.9887 88.67 69.0877 88.747 69.6047 88.747ZM76.6337 85.81H78.8667V84.875H76.6337V85.81ZM76.6337 83.181V84.094H78.8667V83.181H76.6337ZM82.1997 83.181H79.9227V84.094H82.1997V83.181ZM82.1997 85.81V84.875H79.9227V85.81H82.1997ZM84.3777 87.405V88.329H79.9227V89.891H78.8667V88.329H74.5217V87.405H78.8667V86.646H75.6437V82.334H78.8667V81.652H74.8407V80.717H78.8667V79.771H79.9227V80.717H84.0147V81.652H79.9227V82.334H83.2227V86.646H79.9227V87.405H84.3777ZM93.5407 80.255C93.8157 80.651 94.2007 81.333 94.4207 81.762L93.7057 82.07C93.4857 81.63 93.1227 80.97 92.8257 80.552L93.5407 80.255ZM94.7837 79.793C95.0697 80.2 95.4877 80.882 95.6857 81.289L94.9707 81.597C94.7397 81.124 94.3877 80.497 94.0797 80.09L94.7837 79.793ZM88.6787 80.662C88.6457 80.959 88.6127 81.355 88.6127 81.674V83.973C89.9107 83.654 91.5607 83.137 92.6277 82.686C92.9907 82.543 93.3317 82.378 93.6947 82.147L94.1787 83.258C93.8157 83.401 93.3757 83.599 93.0237 83.731C91.8467 84.204 89.9987 84.754 88.6127 85.117V87.361C88.6127 87.889 88.8437 88.021 89.3607 88.131C89.6907 88.186 90.2077 88.208 90.7357 88.208C91.8907 88.208 93.6177 88.087 94.5307 87.845V89.11C93.5297 89.253 91.8797 89.33 90.6697 89.33C89.9877 89.33 89.3277 89.297 88.8657 89.22C87.9747 89.055 87.4687 88.615 87.4687 87.691V81.674C87.4687 81.41 87.4467 80.959 87.3917 80.662H88.6787ZM102.693 88.758C102.737 88.571 102.77 88.318 102.77 88.065V81.553C102.77 81.102 102.704 80.739 102.704 80.673H103.98C103.969 80.739 103.925 81.102 103.925 81.553V87.636C104.882 87.207 106.125 86.272 106.917 85.106L107.588 86.052C106.653 87.295 105.102 88.45 103.837 89.088C103.639 89.198 103.507 89.297 103.419 89.363L102.693 88.758ZM97.6217 88.659C98.5787 87.999 99.2057 86.998 99.5247 85.986C99.8437 85.007 99.8437 82.862 99.8437 81.597C99.8437 81.223 99.8217 80.959 99.7557 80.706H101.032C101.021 80.794 100.977 81.201 100.977 81.586C100.977 82.84 100.933 85.183 100.636 86.283C100.306 87.493 99.6127 88.571 98.6777 89.363L97.6217 88.659ZM109.524 89V87.955H111.295V82.323H109.843V81.52C110.602 81.377 111.141 81.19 111.603 80.893H112.56V87.955H114.144V89H109.524ZM116.468 89V80.893H121.264V81.971H117.744V84.446H120.736V85.513H117.744V89H116.468ZM122.699 86.36V85.425H125.603V86.36H122.699ZM127.147 89V88.263C129.402 86.052 130.766 84.644 130.766 83.412C130.766 82.554 130.304 81.982 129.391 81.982C128.753 81.982 128.225 82.389 127.796 82.884L127.081 82.18C127.774 81.432 128.489 80.97 129.545 80.97C131.03 80.97 131.987 81.916 131.987 83.346C131.987 84.787 130.678 86.239 128.995 87.999C129.402 87.955 129.919 87.922 130.315 87.922H132.372V89H127.147ZM134.554 89V80.893H139.35V81.971H135.83V84.446H138.822V85.513H135.83V89H134.554Z" fill="#797979"/>
<path d="M18.9966 110.824H1.68904C0.756337 110.824 0 111.58 0 112.513V135.762C0 136.695 0.756337 137.452 1.68904 137.452H36.311C37.2437 137.452 38 136.695 38 135.762V112.513C38 111.58 37.2437 110.824 36.311 110.824H19H18.9966ZM34.9543 134.409H3.04231V119.995L19 127.826L34.9577 119.995V134.409H34.9543ZM34.9543 116.606L18.9966 124.438L3.04231 116.606V113.866H34.9543V116.606Z" fill="#797979"/>
<path d="M0.957 156.84V150.79H2.222V156.84H0.957ZM1.584 149.657C1.122 149.657 0.803 149.36 0.803 148.898C0.803 148.447 1.122 148.15 1.584 148.15C2.046 148.15 2.376 148.447 2.376 148.898C2.376 149.36 2.046 149.657 1.584 149.657ZM4.4452 156.84V150.79H5.4792L5.5782 151.626H5.6112C6.1722 151.087 6.7882 150.636 7.6132 150.636C8.9002 150.636 9.4722 151.494 9.4722 153.034V156.84H8.2072V153.188C8.2072 152.143 7.8992 151.725 7.1842 151.725C6.6232 151.725 6.2382 152.011 5.7102 152.55V156.84H4.4452ZM11.8485 156.84V151.802H11.0235V150.856L11.8485 150.79V150.031C11.8485 148.788 12.4095 147.93 13.7625 147.93C14.1695 147.93 14.5545 148.018 14.8295 148.128L14.5765 149.085C14.3565 148.986 14.1255 148.931 13.9165 148.931C13.3775 148.931 13.1135 149.283 13.1135 150.02V150.79H14.3345V151.802H13.1135V156.84H11.8485ZM18.0633 156.983C16.5673 156.983 15.2143 155.828 15.2143 153.815C15.2143 151.802 16.5673 150.636 18.0633 150.636C19.5593 150.636 20.9123 151.802 20.9123 153.815C20.9123 155.828 19.5593 156.983 18.0633 156.983ZM18.0633 155.949C19.0203 155.949 19.6143 155.102 19.6143 153.815C19.6143 152.539 19.0203 151.681 18.0633 151.681C17.1173 151.681 16.5233 152.539 16.5233 153.815C16.5233 155.102 17.1173 155.949 18.0633 155.949ZM26.8551 158.82C24.4131 158.82 22.3891 157.291 22.3891 154.321C22.3891 150.955 24.8311 148.755 27.6801 148.755C30.2321 148.755 31.8491 150.471 31.8491 152.957C31.8491 155.146 30.4411 156.268 29.2641 156.268C28.5821 156.268 28.0431 155.949 27.9441 155.333H27.9111C27.5371 155.806 26.9431 156.169 26.4151 156.169C25.5351 156.169 24.8751 155.52 24.8751 154.387C24.8751 153.012 25.8651 151.472 27.2951 151.472C27.7131 151.472 28.0541 151.659 28.2741 152.077H28.2961L28.4501 151.571H29.2641L28.7471 154.112C28.5271 155.025 28.7471 155.443 29.3851 155.443C30.1551 155.443 31.0021 154.519 31.0021 153.001C31.0021 151.065 29.8911 149.569 27.5811 149.569C25.4141 149.569 23.2911 151.428 23.2911 154.277C23.2911 156.708 24.8971 158.006 26.9541 158.006C27.6691 158.006 28.3731 157.786 28.9121 157.478L29.2311 158.204C28.4941 158.622 27.7241 158.82 26.8551 158.82ZM26.6681 155.333C26.9871 155.333 27.3171 155.146 27.7131 154.662L28.0431 152.781C27.8451 152.451 27.6361 152.319 27.3171 152.319C26.4261 152.319 25.8651 153.441 25.8651 154.321C25.8651 155.036 26.2061 155.333 26.6681 155.333ZM35.1786 156.983C34.1336 156.983 33.3966 156.301 33.3966 155.234C33.3966 153.936 34.4966 153.265 37.0156 152.99C37.0046 152.286 36.7516 151.67 35.8606 151.67C35.2226 151.67 34.6286 151.956 34.1116 152.286L33.6386 151.428C34.2656 151.032 35.1126 150.636 36.0806 150.636C37.5876 150.636 38.2806 151.593 38.2806 153.199V156.84H37.2466L37.1476 156.147H37.1036C36.5536 156.62 35.9046 156.983 35.1786 156.983ZM35.5636 155.982C36.0916 155.982 36.5206 155.729 37.0156 155.278V153.793C35.2226 154.002 34.6176 154.464 34.6176 155.146C34.6176 155.74 35.0246 155.982 35.5636 155.982ZM39.9657 154.2V153.265H42.8697V154.2H39.9657ZM45.9214 156.983C45.0084 156.983 44.6674 156.4 44.6674 155.421V148.073H45.9324V155.487C45.9324 155.828 46.0754 155.949 46.2294 155.949C46.2844 155.949 46.3284 155.949 46.4384 155.927L46.6034 156.884C46.4494 156.939 46.2404 156.983 45.9214 156.983ZM48.2738 156.84V150.79H49.5388V156.84H48.2738ZM48.9008 149.657C48.4388 149.657 48.1198 149.36 48.1198 148.898C48.1198 148.447 48.4388 148.15 48.9008 148.15C49.3628 148.15 49.6928 148.447 49.6928 148.898C49.6928 149.36 49.3628 149.657 48.9008 149.657ZM51.971 156.84V151.802H51.146V150.856L51.971 150.79V150.031C51.971 148.788 52.532 147.93 53.885 147.93C54.292 147.93 54.677 148.018 54.952 148.128L54.699 149.085C54.479 148.986 54.248 148.931 54.039 148.931C53.5 148.931 53.236 149.283 53.236 150.02V150.79H54.457V151.802H53.236V156.84H51.971ZM58.2848 156.983C56.6458 156.983 55.3368 155.817 55.3368 153.815C55.3368 151.857 56.6898 150.636 58.0978 150.636C59.7038 150.636 60.5728 151.791 60.5728 153.496C60.5728 153.749 60.5398 153.991 60.5068 154.145H56.5798C56.6788 155.3 57.4048 155.993 58.4498 155.993C58.9888 155.993 59.4508 155.828 59.8908 155.542L60.3308 156.345C59.7698 156.719 59.0768 156.983 58.2848 156.983ZM56.5688 153.265H59.4728C59.4728 152.231 58.9998 151.626 58.1198 151.626C57.3608 151.626 56.6898 152.209 56.5688 153.265ZM64.7795 156.983C63.1405 156.983 61.8865 155.828 61.8865 153.815C61.8865 151.802 63.2835 150.636 64.8785 150.636C65.6485 150.636 66.2095 150.944 66.6495 151.329L66.0225 152.154C65.6925 151.857 65.3515 151.681 64.9445 151.681C63.9215 151.681 63.1955 152.539 63.1955 153.815C63.1955 155.102 63.8995 155.949 64.9005 155.949C65.4065 155.949 65.8575 155.707 66.2205 155.399L66.7485 156.235C66.1875 156.73 65.4725 156.983 64.7795 156.983ZM70.4581 156.983C68.9621 156.983 67.6091 155.828 67.6091 153.815C67.6091 151.802 68.9621 150.636 70.4581 150.636C71.9541 150.636 73.3071 151.802 73.3071 153.815C73.3071 155.828 71.9541 156.983 70.4581 156.983ZM70.4581 155.949C71.4151 155.949 72.0091 155.102 72.0091 153.815C72.0091 152.539 71.4151 151.681 70.4581 151.681C69.5121 151.681 68.9181 152.539 68.9181 153.815C68.9181 155.102 69.5121 155.949 70.4581 155.949ZM75.1249 156.84V150.79H76.1589L76.2579 151.637H76.2909C76.8079 151.087 77.4129 150.636 78.1609 150.636C79.0629 150.636 79.5689 151.054 79.8329 151.747C80.4269 151.109 81.0429 150.636 81.8019 150.636C83.0669 150.636 83.6609 151.494 83.6609 153.034V156.84H82.3959V153.188C82.3959 152.143 82.0659 151.725 81.3839 151.725C80.9659 151.725 80.5259 152 80.0199 152.55V156.84H78.7549V153.188C78.7549 152.143 78.4359 151.725 77.7429 151.725C77.3359 151.725 76.8849 152 76.3899 152.55V156.84H75.1249ZM85.8211 159.293V150.79H86.8551L86.9541 151.45H86.9871C87.5151 151.01 88.1751 150.636 88.8571 150.636C90.3861 150.636 91.2441 151.857 91.2441 153.716C91.2441 155.795 90.0011 156.983 88.6371 156.983C88.0981 156.983 87.5591 156.741 87.0421 156.301L87.0861 157.335V159.293H85.8211ZM88.3951 155.938C89.2751 155.938 89.9351 155.157 89.9351 153.738C89.9351 152.473 89.5281 151.692 88.5161 151.692C88.0431 151.692 87.5921 151.934 87.0861 152.429V155.388C87.5591 155.795 88.0211 155.938 88.3951 155.938ZM94.3487 156.983C93.3037 156.983 92.5667 156.301 92.5667 155.234C92.5667 153.936 93.6667 153.265 96.1857 152.99C96.1747 152.286 95.9217 151.67 95.0307 151.67C94.3927 151.67 93.7987 151.956 93.2817 152.286L92.8087 151.428C93.4357 151.032 94.2827 150.636 95.2507 150.636C96.7577 150.636 97.4507 151.593 97.4507 153.199V156.84H96.4167L96.3177 156.147H96.2737C95.7237 156.62 95.0747 156.983 94.3487 156.983ZM94.7337 155.982C95.2617 155.982 95.6907 155.729 96.1857 155.278V153.793C94.3927 154.002 93.7877 154.464 93.7877 155.146C93.7877 155.74 94.1947 155.982 94.7337 155.982ZM99.5759 156.84V150.79H100.61L100.709 151.626H100.742C101.303 151.087 101.919 150.636 102.744 150.636C104.031 150.636 104.603 151.494 104.603 153.034V156.84H103.338V153.188C103.338 152.143 103.03 151.725 102.315 151.725C101.754 151.725 101.369 152.011 100.841 152.55V156.84H99.5759ZM107.045 159.37C106.737 159.37 106.495 159.326 106.286 159.249L106.528 158.259C106.638 158.292 106.814 158.347 106.968 158.347C107.628 158.347 108.013 157.863 108.233 157.214L108.354 156.796L105.956 150.79H107.254L108.376 153.903C108.552 154.442 108.739 155.047 108.926 155.608H108.981C109.135 155.058 109.3 154.453 109.454 153.903L110.422 150.79H111.654L109.432 157.203C108.959 158.501 108.321 159.37 107.045 159.37ZM113.239 156.983C112.766 156.983 112.392 156.62 112.392 156.103C112.392 155.575 112.766 155.201 113.239 155.201C113.712 155.201 114.086 155.575 114.086 156.103C114.086 156.62 113.712 156.983 113.239 156.983ZM118.488 156.983C116.849 156.983 115.595 155.828 115.595 153.815C115.595 151.802 116.992 150.636 118.587 150.636C119.357 150.636 119.918 150.944 120.358 151.329L119.731 152.154C119.401 151.857 119.06 151.681 118.653 151.681C117.63 151.681 116.904 152.539 116.904 153.815C116.904 155.102 117.608 155.949 118.609 155.949C119.115 155.949 119.566 155.707 119.929 155.399L120.457 156.235C119.896 156.73 119.181 156.983 118.488 156.983ZM124.166 156.983C122.67 156.983 121.317 155.828 121.317 153.815C121.317 151.802 122.67 150.636 124.166 150.636C125.662 150.636 127.015 151.802 127.015 153.815C127.015 155.828 125.662 156.983 124.166 156.983ZM124.166 155.949C125.123 155.949 125.717 155.102 125.717 153.815C125.717 152.539 125.123 151.681 124.166 151.681C123.22 151.681 122.626 152.539 122.626 153.815C122.626 155.102 123.22 155.949 124.166 155.949ZM128.833 156.84V150.79H129.867L129.966 151.637H129.999C130.516 151.087 131.121 150.636 131.869 150.636C132.771 150.636 133.277 151.054 133.541 151.747C134.135 151.109 134.751 150.636 135.51 150.636C136.775 150.636 137.369 151.494 137.369 153.034V156.84H136.104V153.188C136.104 152.143 135.774 151.725 135.092 151.725C134.674 151.725 134.234 152 133.728 152.55V156.84H132.463V153.188C132.463 152.143 132.144 151.725 131.451 151.725C131.044 151.725 130.593 152 130.098 152.55V156.84H128.833Z" fill="#797979"/>
<path d="M3.135 235.983C1.551 235.983 0.517 234.575 0.517 231.759C0.517 228.954 1.551 227.59 3.135 227.59C4.719 227.59 5.753 228.965 5.753 231.759C5.753 234.575 4.719 235.983 3.135 235.983ZM3.135 234.982C3.96 234.982 4.543 234.102 4.543 231.759C4.543 229.438 3.96 228.591 3.135 228.591C2.31 228.591 1.727 229.438 1.727 231.759C1.727 234.102 2.31 234.982 3.135 234.982ZM11.0694 235.983C9.55144 235.983 8.42944 235.081 8.42944 233.827C8.42944 232.76 9.13344 232.045 9.88144 231.649V231.594C9.27644 231.165 8.79244 230.56 8.79244 229.702C8.79244 228.437 9.78244 227.612 11.1024 227.612C12.5104 227.612 13.3904 228.492 13.3904 229.757C13.3904 230.582 12.8294 231.286 12.3234 231.66V231.715C13.0494 232.122 13.6874 232.76 13.6874 233.86C13.6874 235.059 12.6314 235.983 11.0694 235.983ZM11.5974 231.341C12.0814 230.89 12.3234 230.373 12.3234 229.834C12.3234 229.086 11.8724 228.525 11.0804 228.525C10.4204 228.525 9.92544 228.976 9.92544 229.702C9.92544 230.582 10.6954 230.989 11.5974 231.341ZM11.0914 235.07C11.9274 235.07 12.4884 234.586 12.4884 233.827C12.4884 232.837 11.5974 232.463 10.4974 232.012C9.93644 232.397 9.55144 233.002 9.55144 233.706C9.55144 234.509 10.2224 235.07 11.0914 235.07ZM18.9819 235.983C17.3979 235.983 16.3639 234.575 16.3639 231.759C16.3639 228.954 17.3979 227.59 18.9819 227.59C20.5659 227.59 21.5999 228.965 21.5999 231.759C21.5999 234.575 20.5659 235.983 18.9819 235.983ZM18.9819 234.982C19.8069 234.982 20.3899 234.102 20.3899 231.759C20.3899 229.438 19.8069 228.591 18.9819 228.591C18.1569 228.591 17.5739 229.438 17.5739 231.759C17.5739 234.102 18.1569 234.982 18.9819 234.982ZM24.2873 233.2V232.265H27.1913V233.2H24.2873ZM29.836 235.84V235.103C32.223 232.991 33.455 231.418 33.455 230.087C33.455 229.207 32.993 228.602 32.08 228.602C31.442 228.602 30.914 229.009 30.485 229.504L29.77 228.8C30.463 228.041 31.178 227.59 32.234 227.59C33.719 227.59 34.676 228.558 34.676 230.021C34.676 231.583 33.433 233.2 31.717 234.839C32.135 234.795 32.641 234.762 33.037 234.762H35.061V235.84H29.836ZM40.5644 231.704C40.1024 231.704 39.5414 231.957 39.0574 232.65C39.1894 234.256 39.7724 235.015 40.6414 235.015C41.3454 235.015 41.9064 234.377 41.9064 233.321C41.9064 232.287 41.4334 231.704 40.5644 231.704ZM40.6524 235.983C39.1124 235.983 37.8584 234.696 37.8584 231.946C37.8584 228.833 39.3214 227.59 40.9164 227.59C41.8184 227.59 42.4784 227.975 42.9404 228.459L42.2474 229.229C41.9504 228.877 41.4554 228.624 40.9824 228.624C39.9484 228.624 39.0904 229.405 39.0354 231.715C39.5084 231.132 40.2124 230.78 40.7954 230.78C42.1594 230.78 43.0724 231.616 43.0724 233.321C43.0724 234.927 41.9724 235.983 40.6524 235.983ZM46.1448 235.84V234.795H47.9158V229.163H46.4638V228.36C47.2228 228.217 47.7618 228.03 48.2238 227.733H49.1808V234.795H50.7648V235.84H46.1448ZM55.2453 235.84C55.3883 232.881 55.9053 230.989 57.4673 228.811H53.6613V227.733H58.8753V228.514C56.9723 230.879 56.6753 232.672 56.5433 235.84H55.2453ZM61.5627 233.2V232.265H64.4667V233.2H61.5627ZM68.1233 232.683H70.3563V230.56C70.3563 230.12 70.3893 229.438 70.4113 228.987H70.3673C70.1693 229.405 69.9493 229.823 69.7183 230.241L68.1233 232.683ZM70.3563 235.84V233.662H66.8473V232.815L70.0703 227.733H71.5443V232.683H72.5673V233.662H71.5443V235.84H70.3563ZM76.2008 230.252C76.2008 231.286 76.6628 231.88 77.5098 231.88C78.0158 231.88 78.5878 231.583 79.0498 230.89C78.9288 229.295 78.3238 228.569 77.4438 228.569C76.7508 228.569 76.2008 229.196 76.2008 230.252ZM77.2238 235.983C76.2888 235.983 75.6288 235.609 75.1558 235.125L75.8488 234.344C76.1678 234.707 76.6628 234.949 77.1688 234.949C78.1478 234.949 78.9948 234.157 79.0718 231.847C78.5988 232.43 77.9058 232.793 77.2898 232.793C75.9368 232.793 75.0238 231.946 75.0238 230.252C75.0238 228.646 76.1238 227.59 77.4328 227.59C78.9838 227.59 80.2378 228.833 80.2378 231.517C80.2378 234.707 78.7858 235.983 77.2238 235.983ZM85.4222 235.983C84.1462 235.983 83.3212 235.477 82.7822 234.872L83.3982 234.058C83.8712 234.542 84.4762 234.949 85.3122 234.949C86.2252 234.949 86.8522 234.443 86.8522 233.596C86.8522 232.705 86.2802 232.122 84.4542 232.122V231.187C86.0492 231.187 86.5772 230.582 86.5772 229.768C86.5772 229.053 86.1042 228.613 85.3342 228.602C84.7072 228.613 84.1792 228.91 83.7172 229.361L83.0572 228.569C83.6952 227.997 84.4432 227.59 85.3782 227.59C86.8302 227.59 87.8532 228.349 87.8532 229.68C87.8532 230.615 87.3142 231.264 86.4562 231.583V231.638C87.3912 231.869 88.1282 232.573 88.1282 233.662C88.1282 235.125 86.9072 235.983 85.4222 235.983ZM93.6867 231.704C93.2247 231.704 92.6637 231.957 92.1797 232.65C92.3117 234.256 92.8947 235.015 93.7637 235.015C94.4677 235.015 95.0287 234.377 95.0287 233.321C95.0287 232.287 94.5557 231.704 93.6867 231.704ZM93.7747 235.983C92.2347 235.983 90.9807 234.696 90.9807 231.946C90.9807 228.833 92.4437 227.59 94.0387 227.59C94.9407 227.59 95.6007 227.975 96.0627 228.459L95.3697 229.229C95.0727 228.877 94.5777 228.624 94.1047 228.624C93.0707 228.624 92.2127 229.405 92.1577 231.715C92.6307 231.132 93.3347 230.78 93.9177 230.78C95.2817 230.78 96.1947 231.616 96.1947 233.321C96.1947 234.927 95.0947 235.983 93.7747 235.983Z" fill="#797979"/>
<path d="M29.0033 181.751H8.70203C7.76215 181.751 7 182.514 7 183.453V214.281C7 215.221 7.76215 215.983 8.70203 215.983H29.0067C29.9466 215.983 30.7088 215.221 30.7088 214.281V183.453C30.7088 182.514 29.9466 181.751 29.0067 181.751H29.0033ZM21.7304 214.015H15.9749C15.5477 214.015 15.2025 213.67 15.2025 213.242C15.2025 212.815 15.5477 212.47 15.9749 212.47H21.7304C22.1576 212.47 22.5028 212.815 22.5028 213.242C22.5028 213.67 22.1576 214.015 21.7304 214.015ZM27.6396 210.501H10.0657V184.817H27.6396V210.501Z" fill="#797979"/>
</svg>
