<svg width="48" height="49" viewBox="0 0 48 49" fill="none" xmlns="http://www.w3.org/2000/svg">
<path d="M12.1878 25.8981L14.4715 21.7721C18.7091 22.337 23.0444 21.4037 26.9889 19.4635L47.2 48.7877L30.7991 17.204C34.8047 14.3797 38.1508 10.5238 40.1414 6.31183C37.1861 9.71334 33.7056 12.8938 29.8466 15.3743L21.8476 0L14.2028 20.5196C12.371 20.5441 10.5025 20.3845 8.62183 19.9547C10.2949 20.8143 12.029 21.3669 13.7754 21.6739L12.2 25.9104L12.1878 25.8981ZM20.7485 10.4256L25.7555 17.6952C22.4094 19.2916 18.8556 20.3108 15.1798 20.5073L20.7485 10.4256Z" fill="#A1B5D5"/>
<path d="M11.9679 26.3032L0 48.7999H44.7942L7.30287 40.818L11.9679 26.3032Z" fill="#B5B5B6"/>
</svg>
