<svg width="41" height="41" viewBox="0 0 41 41" fill="none" xmlns="http://www.w3.org/2000/svg">
<path d="M11.8634 0.14016C9.70877 0.241816 8.23699 0.586879 6.9511 1.0907C5.61985 1.60951 4.49151 2.30531 3.36884 3.43244C2.24495 4.56037 1.55482 5.69074 1.03966 7.0232C0.541095 8.31233 0.202917 9.78492 0.108146 11.9408C0.0133746 14.101 -0.00809067 14.79 0.00243944 20.2891C0.0129696 25.7874 0.0372698 26.4776 0.140141 28.6383C0.243012 30.7925 0.586861 32.2635 1.09069 33.5501C1.61031 34.8814 2.30529 36.0093 3.43283 37.1324C4.55995 38.2555 5.69113 38.9452 7.0244 39.4608C8.31232 39.9589 9.78532 40.2979 11.9408 40.3923C14.1006 40.4875 14.7904 40.5085 20.2879 40.498C25.7878 40.4875 26.4776 40.4632 28.6375 40.3607C30.7921 40.2578 32.2622 39.9128 33.5498 39.4101C34.881 38.8893 36.0093 38.1955 37.132 37.068C38.2547 35.9409 38.9448 34.8097 39.46 33.4764C39.9585 32.1885 40.2979 30.7155 40.3915 28.5613C40.4859 26.4002 40.5081 25.7097 40.4976 20.2117C40.4871 14.713 40.4624 14.0241 40.3599 11.8646C40.2574 9.70878 39.9124 8.23821 39.4094 6.95111C38.8889 5.61986 38.1948 4.49274 37.0676 3.36885C35.9405 2.24618 34.8093 1.55484 33.476 1.04089C32.1873 0.542329 30.7151 0.202531 28.5597 0.10938C26.4002 0.0129888 25.7109 -0.00807143 20.2113 0.00245867C14.713 0.0129888 14.0237 0.036479 11.8638 0.14016M12.0999 36.7477C10.1255 36.6618 9.05348 36.3337 8.33905 36.0587C7.39296 35.6926 6.71782 35.2536 6.00703 34.5485C5.29787 33.8405 4.85763 33.1674 4.48827 32.2234C4.21084 31.5089 3.87671 30.4381 3.78437 28.4637C3.68393 26.3293 3.66084 25.689 3.65112 20.2818C3.64059 14.8762 3.66044 14.2355 3.75359 12.0995C3.83824 10.1267 4.16831 9.05308 4.4425 8.33946C4.80863 7.39216 5.24603 6.71823 5.95276 6.00745C6.66071 5.29707 7.33383 4.85805 8.2787 4.48869C8.99273 4.20964 10.0632 3.87835 12.0367 3.78479C14.1723 3.68354 14.8122 3.66207 20.2178 3.65154C25.6246 3.64101 26.2654 3.66005 28.4013 3.75401C30.3741 3.83987 31.4478 4.16671 32.161 4.44292C33.1079 4.80904 33.783 5.24523 34.493 5.95318C35.203 6.66113 35.6432 7.33303 36.0126 8.27993C36.2912 8.99192 36.6229 10.064 36.7161 12.0367C36.8177 14.1723 36.8408 14.8126 36.8505 20.2186C36.8611 25.6258 36.8412 26.2662 36.7477 28.4009C36.6618 30.3753 36.3342 31.4478 36.0588 32.163C35.6926 33.1083 35.2548 33.7834 34.5477 34.4942C33.8406 35.2022 33.1674 35.6436 32.2217 36.013C31.5093 36.2912 30.4373 36.6233 28.4649 36.7169C26.3293 36.8173 25.6894 36.8404 20.2818 36.8501C14.8762 36.8606 14.2363 36.8404 12.1003 36.7477M28.6079 9.42568C28.6103 10.7667 29.701 11.8525 31.042 11.85C32.3838 11.8476 33.4696 10.7577 33.4675 9.41637C33.4647 8.0754 32.3744 6.98878 31.0327 6.99121C29.6909 6.99364 28.6051 8.08431 28.6075 9.42528M9.85255 20.2701C9.86348 26.013 14.5279 30.6584 20.2697 30.6471C26.0118 30.6357 30.6596 25.9729 30.6487 20.23C30.6374 14.489 25.9725 9.84122 20.2296 9.85215C14.4878 9.86349 9.84121 14.5283 9.85255 20.2701ZM13.5 20.2628C13.4935 16.5355 16.5104 13.5073 20.2369 13.5008C23.9641 13.4935 26.9927 16.5092 27 20.2373C27.0073 23.9653 23.9904 26.9927 20.2624 27C16.5355 27.0073 13.5069 23.9912 13.5 20.2632" fill="#797979"/>
</svg>
